<?xml version="1.0" encoding="utf-8"?>
<!-- Generator: Adobe Illustrator 16.0.0, SVG Export Plug-In . SVG Version: 6.00 Build 0)  -->
<!DOCTYPE svg PUBLIC "-//W3C//DTD SVG 1.1//EN" "http://www.w3.org/Graphics/SVG/1.1/DTD/svg11.dtd">
<svg version="1.1" id="Layer_1" xmlns="http://www.w3.org/2000/svg" xmlns:xlink="http://www.w3.org/1999/xlink" x="0px" y="0px"
	 width="20.531px" height="20.531px" viewBox="1.735 1.734 20.531 20.531" enable-background="new 1.735 1.734 20.531 20.531"
	 xml:space="preserve">
<path d="M12,1.734c1.875,0,3.609,0.422,5.156,1.359c1.594,0.938,2.812,2.156,3.75,3.75c0.938,1.547,1.359,3.281,1.359,5.156
	s-0.422,3.609-1.359,5.156c-0.938,1.594-2.156,2.812-3.75,3.75c-1.547,0.938-3.281,1.359-5.156,1.359s-3.609-0.422-5.156-1.359
	c-1.594-0.938-2.812-2.156-3.75-3.75C2.156,15.609,1.735,13.875,1.735,12s0.422-3.609,1.359-5.156
	c0.938-1.594,2.156-2.812,3.75-3.75C8.391,2.156,10.125,1.734,12,1.734z M15.656,8.672c0,0.047-0.047,0.094-0.094,0.141
	c-0.094,0.094-0.141,0.141-0.188,0.141c0,0,0.047-0.047,0.047-0.094s0.047-0.094,0.047-0.141c0.047-0.047,0.047-0.094,0.047-0.094
	c0.094-0.047,0.188-0.094,0.328-0.188c0.094-0.047,0.328-0.094,0.703-0.141c0.281-0.094,0.516-0.047,0.656,0.141
	c0-0.047,0.047-0.094,0.141-0.188s0.141-0.141,0.188-0.141c0.047-0.047,0.094-0.047,0.188-0.094c0.141,0,0.188-0.047,0.234-0.094
	V7.641c-0.094,0-0.188-0.047-0.234-0.094c-0.047-0.094-0.094-0.188-0.094-0.281c0,0,0,0.047-0.047,0.094
	c0-0.047-0.047-0.094-0.094-0.094s-0.094,0-0.141,0c-0.047,0.047-0.094,0.047-0.141,0c-0.047,0-0.141-0.047-0.188-0.094
	s-0.094-0.094-0.094-0.188c-0.047-0.141-0.047-0.188-0.047-0.234c-0.047-0.047-0.094-0.094-0.141-0.141s-0.094-0.094-0.141-0.141
	V6.422c-0.047-0.047-0.047-0.094-0.047-0.094C16.5,6.281,16.5,6.281,16.5,6.234c-0.047,0-0.047,0-0.094,0s-0.047,0-0.094,0.047
	s-0.047,0.094-0.094,0.141s-0.047,0.047-0.047,0.047c-0.047,0-0.094,0-0.094,0c-0.047,0-0.047,0-0.047,0
	c-0.047,0-0.047,0.047-0.094,0.047l-0.047,0.047c-0.047,0-0.094,0.047-0.141,0.047s-0.047,0-0.094,0
	c0.141-0.047,0.141-0.094,0-0.141c-0.094,0-0.188-0.047-0.234-0.047c0.094,0,0.141-0.047,0.094-0.141
	c0-0.094-0.047-0.141-0.094-0.188h0.047C15.469,6.047,15.422,6,15.375,6c-0.094-0.047-0.141-0.094-0.234-0.141
	S15,5.812,14.953,5.766s-0.234-0.047-0.469-0.094s-0.375-0.047-0.422,0s-0.047,0.094-0.047,0.141c0,0,0,0.094,0.047,0.188
	c0.047,0.047,0.047,0.141,0.047,0.141c0,0.047,0,0.141-0.094,0.188c-0.047,0.047-0.094,0.094-0.094,0.141
	c0,0.094,0.094,0.141,0.188,0.234c0.141,0.047,0.188,0.141,0.141,0.281c0,0.047-0.094,0.141-0.188,0.188
	c-0.141,0.094-0.188,0.141-0.234,0.188s-0.047,0.141,0,0.234c0,0.094,0.047,0.188,0.141,0.234v0.047c0,0,0,0.047-0.047,0.047
	c0,0.047-0.047,0.047-0.047,0.047c-0.047,0.047-0.094,0.047-0.094,0.047l-0.047,0.047c-0.094,0.047-0.188,0-0.281-0.094
	s-0.141-0.188-0.188-0.328c-0.047-0.234-0.141-0.375-0.188-0.422c-0.234-0.047-0.375-0.047-0.422,0.047
	c-0.047-0.141-0.234-0.234-0.516-0.375c-0.234-0.094-0.516-0.094-0.797-0.047c0.047,0,0.047-0.094,0-0.188
	c-0.047-0.141-0.141-0.188-0.234-0.188c0-0.047,0.047-0.141,0.047-0.234s0-0.141,0-0.188c0.047-0.094,0.094-0.188,0.141-0.281
	c0.047,0,0.047-0.047,0.094-0.141c0.094-0.047,0.094-0.094,0.141-0.141c0.047-0.094,0.047-0.094,0-0.094
	c0.328,0.047,0.562,0,0.703-0.141c0.047-0.047,0.094-0.141,0.141-0.234s0.094-0.188,0.141-0.234
	c0.094-0.047,0.141-0.094,0.188-0.094c0.047,0.047,0.094,0.047,0.188,0.094s0.141,0.047,0.188,0.047
	c0.141,0.047,0.188,0,0.234-0.141c0-0.094-0.047-0.188-0.141-0.234c0.141,0,0.141-0.094,0.047-0.234
	c-0.047-0.094-0.047-0.094-0.094-0.141c-0.094-0.047-0.234,0-0.375,0.094c-0.047,0-0.047,0.047,0.047,0.094
	c0,0-0.047,0.047-0.141,0.141C12.61,4.5,12.516,4.594,12.422,4.641c-0.047,0.047-0.141,0.047-0.188-0.094
	c0,0-0.047-0.047-0.094-0.141c-0.047-0.141-0.047-0.188-0.094-0.188c-0.094,0-0.141,0.047-0.234,0.188
	c0.047-0.094,0-0.141-0.141-0.188c-0.141-0.094-0.234-0.094-0.328-0.141c0.188-0.094,0.141-0.188-0.094-0.328
	c-0.094-0.047-0.188-0.094-0.281-0.094c-0.141,0-0.234,0-0.281,0.047c-0.047,0.094-0.047,0.141-0.047,0.188s0,0.047,0.047,0.094
	s0.094,0.047,0.141,0.094c0.047,0,0.094,0,0.141,0.047c0.094,0,0.094,0,0.141,0.047c0.141,0.047,0.141,0.141,0.094,0.188
	c0,0-0.047,0-0.094,0.047c-0.094,0-0.141,0-0.188,0.047c-0.047,0-0.047,0.047-0.047,0.047c-0.047,0.047-0.047,0.094,0,0.188
	c0,0.094,0,0.141-0.047,0.188c-0.047-0.047-0.094-0.141-0.094-0.234c-0.047-0.094-0.094-0.188-0.094-0.234
	C10.688,4.5,10.594,4.547,10.266,4.5h-0.094c-0.047,0-0.141,0-0.234,0C9.844,4.547,9.75,4.547,9.656,4.547
	C9.61,4.5,9.516,4.5,9.469,4.406c0-0.047,0-0.141,0-0.234c0-0.047,0.047-0.047,0.047-0.047c0-0.047-0.047-0.047-0.141-0.141
	C9.328,3.938,9.281,3.891,9.235,3.891C8.86,4.031,8.438,4.219,8.016,4.453c0.047,0,0.094,0,0.141-0.047
	c0.047,0,0.094-0.047,0.188-0.094c0.047,0,0.094-0.047,0.141-0.047c0.281-0.141,0.469-0.141,0.562-0.094l0.047-0.094
	c0.141,0.141,0.234,0.281,0.281,0.375C9.281,4.406,9.188,4.406,8.953,4.406C8.766,4.453,8.672,4.547,8.672,4.594
	c0.047,0.094,0.094,0.188,0.047,0.234c0-0.047-0.094-0.094-0.141-0.141S8.438,4.594,8.391,4.547S8.25,4.5,8.203,4.453
	C8.063,4.453,7.922,4.5,7.875,4.5C6.563,5.203,5.531,6.188,4.735,7.453C4.781,7.5,4.875,7.547,4.922,7.547
	c0,0.047,0.047,0.047,0.047,0.141s0,0.141,0.047,0.141c0,0.047,0.047,0,0.141-0.047C5.25,7.875,5.25,7.969,5.203,8.062
	c0,0,0.188,0.094,0.562,0.328c0.188,0.188,0.281,0.281,0.281,0.281c0.047,0.141,0,0.188-0.094,0.281
	C5.906,8.906,5.906,8.859,5.813,8.812S5.719,8.719,5.672,8.766c0,0.047,0,0.141,0.047,0.234c0,0.141,0.047,0.188,0.141,0.188
	c-0.094,0-0.141,0.047-0.141,0.188C5.672,9.516,5.672,9.703,5.672,9.844c0,0.188,0,0.281,0,0.328l0,0c0,0.141,0,0.281,0.094,0.469
	c0.094,0.234,0.188,0.281,0.281,0.281c-0.094,0,0,0.234,0.281,0.562c0.047,0.094,0.094,0.141,0.094,0.141
	c0.047,0,0.094,0.047,0.188,0.094c0.047,0.047,0.141,0.094,0.188,0.141S6.891,11.953,6.938,12c0,0.047,0.047,0.141,0.141,0.281
	c0.047,0.141,0.094,0.281,0.188,0.328c-0.047,0.047,0,0.141,0.094,0.281C7.453,12.984,7.5,13.078,7.5,13.172l0,0
	c-0.047,0.047-0.047,0.047-0.047,0.047c0,0.047,0.094,0.094,0.188,0.188c0.141,0.047,0.188,0.094,0.234,0.141
	c0,0.047,0,0.094,0,0.141c0,0.094,0.047,0.141,0.047,0.141c0.047,0.047,0.047,0.047,0.094,0.047
	c0.047-0.188-0.047-0.469-0.281-0.844C7.594,12.844,7.5,12.703,7.5,12.656c-0.047-0.047-0.047-0.094-0.094-0.188
	c0-0.094-0.047-0.188-0.047-0.234c0,0,0.047,0.047,0.094,0.047c0,0,0.047,0,0.094,0.047c0.047,0,0.094,0.047,0.094,0.047
	c0.047,0,0.047,0.047,0.047,0.047c-0.047,0.047-0.047,0.141,0,0.234s0.094,0.188,0.188,0.234c0.047,0.094,0.141,0.141,0.234,0.281
	c0.047,0.094,0.141,0.141,0.141,0.141c0.047,0.047,0.094,0.141,0.188,0.281c0.094,0.094,0.094,0.188,0,0.188
	c0.094,0,0.188,0.047,0.281,0.141c0.094,0.047,0.141,0.141,0.234,0.234C9,14.25,9,14.344,9.047,14.531
	c0,0.141,0.047,0.234,0.047,0.328C9.141,14.906,9.141,14.953,9.235,15c0.047,0.094,0.094,0.141,0.141,0.141l0.234,0.094
	c0,0,0.047,0.047,0.188,0.094c0.047,0.047,0.094,0.094,0.234,0.141c0.094,0.094,0.188,0.141,0.281,0.188
	c0.094,0,0.141,0.047,0.234,0.047c0.047,0,0.094,0,0.188-0.047c0.047,0,0.141-0.047,0.188-0.047c0.094,0,0.234,0.047,0.375,0.188
	c0.141,0.188,0.234,0.281,0.281,0.281c0.328,0.188,0.562,0.234,0.75,0.188c-0.047,0-0.047,0,0,0.094
	c0,0.047,0.047,0.094,0.094,0.188s0.094,0.141,0.141,0.188c0,0.047,0.047,0.094,0.047,0.141c0.047,0.047,0.141,0.094,0.234,0.188
	c0.141,0.094,0.188,0.141,0.234,0.188c0.094,0,0.094-0.047,0.094-0.094c0,0.047,0.047,0.141,0.094,0.234
	c0.094,0.141,0.188,0.188,0.281,0.141c0.094,0,0.188-0.141,0.188-0.422c-0.281,0.141-0.516,0.047-0.656-0.234
	c0,0-0.047-0.047-0.047-0.094c-0.047,0-0.047-0.047-0.047-0.094c-0.047-0.047-0.047-0.094-0.047-0.094c0-0.047,0-0.094,0-0.141
	h0.047c0.094,0,0.141-0.047,0.141-0.047c0-0.047,0-0.094,0-0.188c-0.047-0.094-0.047-0.141-0.047-0.188
	c-0.047-0.047-0.094-0.141-0.188-0.234c-0.047-0.141-0.141-0.188-0.141-0.234c-0.047,0.094-0.094,0.141-0.234,0.141
	c-0.094-0.047-0.141-0.047-0.188-0.141c0,0,0,0.047-0.047,0.094v0.047c-0.094,0-0.188,0-0.188,0s0-0.094,0-0.234
	c0.047-0.141,0.047-0.234,0.047-0.281c0.047-0.047,0.047-0.094,0.094-0.188c0.047-0.047,0.094-0.141,0.094-0.188
	c0.047-0.047,0.047-0.094,0.047-0.141c0-0.094,0-0.094-0.047-0.141s-0.141-0.047-0.234-0.047c-0.188,0-0.281,0.094-0.328,0.281
	c-0.047,0-0.047,0.047-0.047,0.141c-0.047,0.047-0.047,0.094-0.094,0.141c0,0.047-0.047,0.094-0.094,0.094
	c-0.094,0.047-0.188,0.047-0.328,0.047s-0.281-0.047-0.328-0.094c-0.094-0.047-0.234-0.188-0.281-0.375
	c-0.094-0.188-0.141-0.375-0.141-0.516c0-0.047,0-0.188,0.047-0.328c0-0.141,0-0.281,0-0.328c0.047-0.094,0-0.188-0.047-0.328
	c0-0.047,0.047-0.094,0.094-0.141c0.094-0.047,0.141-0.094,0.141-0.141c0.047,0,0.047,0,0.094,0c0-0.047,0-0.047,0.047,0
	c0,0,0.047,0,0.047-0.047c0,0,0.047-0.047,0.047-0.094h-0.047c-0.047-0.047-0.047-0.047-0.047-0.047c0.047,0,0.188,0,0.375-0.047
	s0.281,0,0.375,0.047c0.094,0.094,0.234,0.094,0.281-0.047c0,0,0-0.047-0.047-0.141c0-0.047,0-0.094,0-0.141
	c0.047,0.234,0.188,0.281,0.375,0.094c0.047,0.047,0.094,0.047,0.234,0.094c0.094,0,0.188,0,0.234,0.047
	c0,0,0.047,0.047,0.094,0.094l0.047,0.047c0.047,0,0.047,0,0.094,0c0-0.047,0.047-0.047,0.094-0.094
	c0.094,0.141,0.141,0.234,0.188,0.328c0.094,0.328,0.141,0.562,0.234,0.562c0.047,0.047,0.094,0.047,0.141,0.047
	s0.047-0.047,0.047-0.141c0.047-0.047,0.047-0.141,0-0.188c0-0.047,0-0.094,0-0.141v-0.141v-0.234l-0.047-0.094
	c-0.094-0.047-0.188-0.094-0.234-0.188c-0.047-0.047,0-0.141,0.047-0.234s0.094-0.141,0.188-0.234c0,0,0.047-0.047,0.094-0.047
	c0.047-0.047,0.141-0.047,0.234-0.094c0.047-0.047,0.094-0.094,0.141-0.094c0.188-0.188,0.281-0.328,0.188-0.469
	c0.094,0,0.141-0.047,0.188-0.141c-0.047,0-0.047,0-0.094-0.047c-0.047,0-0.047-0.047-0.094-0.047
	c-0.047-0.047-0.047-0.047-0.047-0.047c0.047-0.047,0.094-0.094,0-0.188c0.047-0.047,0.094-0.094,0.094-0.141
	c0.047-0.094,0.094-0.141,0.141-0.141c0.047,0.094,0.141,0.094,0.281,0c0.047-0.047,0.047-0.141,0-0.188
	c0.047-0.094,0.141-0.141,0.281-0.141c0.141-0.047,0.188-0.094,0.234-0.141c0.047,0,0.094,0,0.094-0.047
	c0,0,0.047-0.047,0.047-0.141s0-0.141,0-0.141c0.047-0.047,0.141-0.094,0.234-0.141s0.141-0.047,0.141-0.047l0.234-0.188
	c0.047,0,0.047-0.047,0-0.047c0.188,0.047,0.328,0,0.422-0.141c0.094-0.094,0.047-0.188-0.094-0.281
	c0.047-0.047,0.047-0.094,0-0.094c-0.094-0.047-0.141-0.047-0.234-0.094c0.047,0,0.094,0,0.188,0c0.047,0,0.094,0,0.141,0
	c0.094-0.094,0.094-0.188-0.094-0.234S15.891,8.531,15.656,8.672z M13.5,20.438c1.828-0.328,3.375-1.172,4.688-2.531
	c-0.047-0.047-0.094-0.047-0.188-0.047c-0.047-0.047-0.141-0.047-0.141-0.047c-0.188-0.094-0.281-0.094-0.328-0.141
	c0-0.047,0-0.094-0.047-0.141c0-0.047-0.047-0.094-0.094-0.141c-0.047,0-0.094-0.047-0.188-0.094
	c-0.047-0.047-0.094-0.094-0.141-0.094c0-0.047-0.047-0.047-0.094-0.094s-0.047-0.047-0.094-0.047c0-0.047-0.047-0.047-0.094-0.094
	c-0.047,0-0.094,0-0.094,0c-0.047,0-0.094,0-0.141,0H16.5c-0.047,0-0.047,0.047-0.094,0.047l-0.047,0.047
	c-0.047,0-0.047,0-0.047,0.047l0,0c-0.188-0.141-0.375-0.234-0.516-0.281c-0.047,0-0.094-0.047-0.141-0.047
	c-0.047-0.047-0.094-0.094-0.141-0.094c-0.047-0.047-0.094-0.047-0.141-0.047s-0.094,0.047-0.141,0.094s-0.047,0.141-0.094,0.188
	c0,0.094,0,0.188,0,0.188c-0.047-0.047-0.047-0.094,0-0.234c0.047-0.094,0.047-0.188,0-0.234c0-0.047-0.047-0.094-0.141-0.047
	c-0.047,0-0.094,0-0.141,0.047c-0.047,0-0.094,0.047-0.141,0.094c-0.094,0.047-0.094,0.094-0.141,0.094c0,0-0.047,0.047-0.094,0.094
	c-0.094,0.047-0.094,0.047-0.141,0.094c0,0.047-0.047,0.094-0.047,0.141c-0.047,0.094-0.047,0.141-0.094,0.141
	c0,0-0.047-0.047-0.141-0.047c-0.094-0.047-0.141-0.047-0.141-0.094c0.047,0.094,0.047,0.234,0.047,0.469
	c0.047,0.234,0.047,0.375,0.094,0.516c0.047,0.281,0,0.469-0.188,0.656c-0.234,0.188-0.375,0.375-0.375,0.516
	c-0.047,0.188,0,0.328,0.141,0.328c0,0.094,0,0.188-0.094,0.281c-0.047,0.141-0.094,0.234-0.094,0.281
	C13.453,20.297,13.453,20.344,13.5,20.438z"/>
</svg>
