<svg xmlns="http://www.w3.org/2000/svg" xmlns:xlink="http://www.w3.org/1999/xlink" x="0px" y="0px"
	 width="90px" height="75px" viewBox="0 0 90 75" enable-background="new 0 0 90 75" xml:space="preserve">
<g>
	<path d="M88.42,42.004L72.68,4.543C71.432,2.045,68.131,0,65.344,0H55.1L57,20.322h13.5L45,41.469L19.5,20.322H33L34.899,0H24.658
		c-2.789,0-6.09,2.045-7.336,4.543L1.582,42.004c-1.248,2.5-1.893,6.801-1.434,9.557l3.4,18.428C4.008,72.744,6.664,75,9.451,75
		h71.098c2.789,0,5.443-2.256,5.902-5.012l3.402-18.428C90.311,48.805,89.666,44.504,88.42,42.004z M81.605,55.13l-1.295,7.514
		c-0.387,2.885-2.984,5.243-5.771,5.243H15.463c-2.787,0-5.385-2.358-5.773-5.243L8.395,55.13c-0.387-2.885,1.578-5.243,4.365-5.243
		h64.48C80.029,49.887,81.992,52.245,81.605,55.13z"/>
</g>
</svg>
